<svg width="113" height="42" viewBox="0 0 113 42" fill="none" xmlns="http://www.w3.org/2000/svg">
<path d="M13.6592 19.3414C14.6759 19.8801 15.4716 20.6319 16.0463 21.5971C16.6209 22.5397 16.9083 23.617 16.9083 24.829C16.9083 26.7592 16.2342 28.364 14.8859 29.6433C13.5377 30.9227 11.891 31.5623 9.94604 31.5623H0V7.99579H9.21667C11.1175 7.99579 12.7199 8.62423 14.0239 9.88111C15.3501 11.138 16.0131 12.6867 16.0131 14.5271C16.0131 16.5471 15.2285 18.1518 13.6592 19.3414ZM9.21667 11.6318H3.81265V17.8264H9.21667C10.0566 17.8264 10.7638 17.5346 11.3385 16.9511C11.9132 16.3451 12.2005 15.6044 12.2005 14.7291C12.2005 13.8538 11.9132 13.1243 11.3385 12.5408C10.7638 11.9348 10.0566 11.6318 9.21667 11.6318ZM3.81265 27.9264H9.94604C10.8301 27.9264 11.5706 27.6121 12.1673 26.9837C12.7862 26.3328 13.0956 25.5473 13.0956 24.627C13.0956 23.7068 12.7862 22.9325 12.1673 22.304C11.5706 21.6532 10.8301 21.3277 9.94604 21.3277H3.81265V27.9264Z" fill="#4E44CE"/>
<path d="M36.5097 24.6944H23.3147C23.5799 25.9513 24.1767 26.9276 25.1049 27.6234C26.0554 28.3191 27.2268 28.667 28.6192 28.667C30.4979 28.667 31.9235 27.9712 32.896 26.5797L35.8467 28.3304C34.2332 30.7768 31.813 32 28.5861 32C25.9117 32 23.7346 31.1696 22.0548 29.5087C20.3972 27.8254 19.5683 25.7044 19.5683 23.1457C19.5683 20.6544 20.3861 18.5558 22.0217 16.8501C23.6351 15.1443 25.7349 14.2914 28.3208 14.2914C30.73 14.2914 32.7192 15.1555 34.2885 16.8837C35.8577 18.612 36.6424 20.7105 36.6424 23.1794C36.6424 23.6283 36.5982 24.1333 36.5097 24.6944ZM23.2815 21.7317H33.0286C32.7855 20.4075 32.2329 19.3863 31.371 18.6681C30.5311 17.9498 29.5033 17.5907 28.2877 17.5907C26.9615 17.5907 25.8564 17.9611 24.9723 18.7017C24.0882 19.4424 23.5246 20.4524 23.2815 21.7317Z" fill="#4E44CE"/>
<path d="M48.8563 14.7291V18.2304H44.7453V26.3104C44.7453 27.0061 44.9 27.5111 45.2094 27.8254C45.5189 28.1171 45.972 28.2855 46.5687 28.3304C47.1876 28.3528 47.9501 28.3416 48.8563 28.2967V31.5623C46.1156 31.899 44.1485 31.6633 42.955 30.8553C41.7615 30.0249 41.1647 28.5099 41.1647 26.3104V18.2304H38.1146V14.7291H41.1647V11.0931L44.7453 10.0158V14.7291H48.8563Z" fill="#4E44CE"/>
<path d="M59.5797 32C57.0821 32 54.9934 31.1471 53.3136 29.4413C51.656 27.7131 50.8271 25.6146 50.8271 23.1457C50.8271 20.6319 51.656 18.5334 53.3136 16.8501C54.9934 15.1443 57.0821 14.2914 59.5797 14.2914C61.1931 14.2914 62.6629 14.6842 63.9891 15.4698C65.3152 16.2553 66.3098 17.3102 66.9729 18.6344L63.8896 20.4524C63.5139 19.6444 62.9392 19.016 62.1656 18.5671C61.4141 18.0957 60.5411 17.8601 59.5465 17.8601C58.0877 17.8601 56.8611 18.3651 55.8665 19.3751C54.894 20.4075 54.4077 21.6644 54.4077 23.1457C54.4077 24.627 54.894 25.8839 55.8665 26.9164C56.8611 27.9264 58.0877 28.4314 59.5465 28.4314C60.519 28.4314 61.392 28.2069 62.1656 27.758C62.9613 27.2867 63.5581 26.647 63.9559 25.839L67.0392 27.6234C66.3319 28.97 65.3042 30.0361 63.9559 30.8217C62.6298 31.6072 61.171 32 59.5797 32Z" fill="white"/>
<path d="M83.7237 29.4413C82.0439 31.1471 79.9773 32 77.524 32C75.0706 32 73.004 31.1471 71.3243 29.4413C69.6224 27.7131 68.7714 25.6146 68.7714 23.1457C68.7714 20.6768 69.6224 18.5783 71.3243 16.8501C73.004 15.1443 75.0706 14.2914 77.524 14.2914C79.9773 14.2914 82.0439 15.1443 83.7237 16.8501C85.4255 18.5783 86.2765 20.6768 86.2765 23.1457C86.2765 25.6146 85.4255 27.7131 83.7237 29.4413ZM72.352 23.1457C72.352 24.6719 72.8493 25.94 73.8439 26.95C74.8385 27.96 76.0652 28.465 77.524 28.465C78.9827 28.465 80.2094 27.96 81.204 26.95C82.1986 25.94 82.6959 24.6719 82.6959 23.1457C82.6959 21.6195 82.1986 20.3514 81.204 19.3414C80.2094 18.3314 78.9827 17.8264 77.524 17.8264C76.0652 17.8264 74.8385 18.3314 73.8439 19.3414C72.8493 20.3514 72.352 21.6195 72.352 23.1457Z" fill="white"/>
<path d="M93.4262 31.5623H89.8457V14.7291H93.4262V31.5623Z" fill="white"/>
<path d="M106.635 14.2914C108.557 14.2914 110.094 14.9199 111.243 16.1767C112.414 17.4112 113 19.0945 113 21.2267V31.5623H109.419V21.5971C109.419 20.3402 109.088 19.3751 108.425 18.7017C107.762 18.0284 106.856 17.6917 105.706 17.6917C104.402 17.6917 103.374 18.107 102.623 18.9374C101.871 19.7454 101.496 20.9462 101.496 22.5397V31.5623H97.9152V14.7291H101.496V16.8837C102.601 15.1555 104.314 14.2914 106.635 14.2914Z" fill="white"/>
<g clip-path="url(#clip0_483_572)">
<path d="M90.0605 4.40821H92.4875C93.0252 4.40821 93.4614 4.90005 93.4614 5.39821C93.4614 5.94424 93.0252 6.38717 92.4875 6.38717H90.0605V4.40821Z" stroke="white" stroke-miterlimit="10" stroke-linecap="round" stroke-linejoin="round"/>
<path d="M90.0605 6.38085H92.834C93.4495 6.38085 93.9457 6.8243 93.9457 7.37086C93.9457 7.91689 93.4495 8.35981 92.834 8.35981H90.0605V6.38085Z" stroke="white" stroke-miterlimit="10" stroke-linecap="round" stroke-linejoin="round"/>
<path d="M91.6138 11.5729C94.4749 11.5729 96.7941 9.21778 96.7941 6.31247C96.7941 3.40715 94.4749 1.05208 91.6138 1.05208C88.7528 1.05208 86.4336 3.40715 86.4336 6.31247C86.4336 9.21778 88.7528 11.5729 91.6138 11.5729Z" stroke="white" stroke-miterlimit="10"/>
</g>
<defs>
<clipPath id="clip0_483_572">
<rect width="12.4326" height="12.6249" fill="white" transform="translate(85.3984)"/>
</clipPath>
</defs>
</svg>
